<?xml version="1.0" encoding="utf-8"?>
<!-- Generator: Adobe Illustrator 16.0.0, SVG Export Plug-In . SVG Version: 6.00 Build 0)  -->
<!DOCTYPE svg PUBLIC "-//W3C//DTD SVG 1.1//EN" "http://www.w3.org/Graphics/SVG/1.1/DTD/svg11.dtd">
<svg version="1.1" id="Layer_1" xmlns="http://www.w3.org/2000/svg" xmlns:xlink="http://www.w3.org/1999/xlink" x="0px" y="0px"
	 width="200px" height="70px" viewBox="0 0 200 70" enable-background="new 0 0 200 70" xml:space="preserve">
<g>
	<g>
		<path fill-rule="evenodd" clip-rule="evenodd" fill="#1C4483" d="M91.331,43.936c-2.402,0-4.931,0-7.243,0
			c1.109-4.507,2.207-8.968,3.371-13.697c1.559,0,3.469-0.065,5.369,0.052c0.409,0.025,0.777,0.707,1.231,1.152
			c1.625-1.723,3.903-1.138,6.049-1.198c0.5-0.014,1.006-0.045,1.5,0.013c1.593,0.185,2.702-0.193,2.833-2.061
			c0.02-0.261,0.569-0.682,0.884-0.693c1.96-0.063,3.924-0.031,6.04-0.031c-0.129,0.903-0.243,1.71-0.394,2.772
			c1.739,0,3.356,0,4.977,0c-0.172,2.815-0.215,2.857-2.659,2.848c-3.088-0.011-3.1-0.015-3.925,3.002
			c-0.337,1.234-0.579,2.494-0.919,3.728c-0.29,1.05,0.191,1.366,1.133,1.361c1.425-0.009,2.851-0.002,4.279-0.002
			c-0.021,2.243-0.603,2.856-2.933,2.856c-2.137-0.001-4.274,0.021-6.411-0.008c-2.382-0.031-3.474-1.229-3.091-3.574
			c0.293-1.784,0.823-3.53,1.238-5.295c0.143-0.606,0.258-1.218,0.415-1.966c-1.007-0.075-1.841-0.137-2.793-0.208
			c-0.226,0.492-0.461,1.006-0.683,1.494c-1.275-0.09-2.533-0.227-3.793-0.257c-1.607-0.038-2.599,0.736-2.924,2.362
			C92.405,38.978,91.878,41.356,91.331,43.936z"/>
		<path fill-rule="evenodd" clip-rule="evenodd" fill="#1C4483" d="M45.804,28.625c-3.078,0-5.995-0.017-8.912,0.006
			c-1.658,0.013-1.942,0.35-1.966,2.389c1.627,0,3.26-0.01,4.893,0.004c0.853,0.007,1.721-0.039,2.554,0.104
			c1.747,0.301,2.597,1.302,2.277,3.031c-0.426,2.297-1.021,4.576-1.745,6.799c-0.597,1.834-2.119,2.948-3.988,3.006
			c-4.469,0.138-8.944,0.045-13.638,0.045c0.056-1.251,0.106-2.383,0.147-3.297c3.15,0.053,6.151,0.123,9.151,0.135
			c0.493,0.002,1.201-0.108,1.433-0.434c0.371-0.521,0.548-1.271,0.539-1.918c-0.002-0.18-0.949-0.477-1.47-0.496
			c-1.813-0.06-3.629,0.015-5.443-0.029c-2.416-0.062-3.304-1.211-2.764-3.521c0.364-1.556,0.75-3.108,1.161-4.653
			c0.808-3.043,2.517-4.36,5.644-4.364c3.469-0.005,6.938,0,10.408,0.006c1.99,0.002,1.993,0.006,1.839,2.068
			C45.89,27.971,45.825,28.433,45.804,28.625z"/>
		<path fill-rule="evenodd" clip-rule="evenodd" fill="#1C4483" d="M131.132,31.326c-2.535,0-4.937-0.014-7.337,0.005
			c-1.363,0.011-1.6,0.288-1.619,1.967c1.339,0,2.685-0.008,4.028,0.002c0.701,0.007,1.417-0.031,2.103,0.087
			c1.439,0.248,2.14,1.072,1.875,2.497c-0.351,1.89-0.842,3.769-1.437,5.597c-0.491,1.51-1.744,2.428-3.284,2.476
			c-3.678,0.112-7.363,0.036-11.229,0.036c0.046-1.03,0.088-1.962,0.121-2.714c2.594,0.043,5.063,0.101,7.534,0.11
			c0.406,0.001,0.989-0.088,1.18-0.356c0.307-0.43,0.451-1.046,0.445-1.58c-0.002-0.147-0.782-0.393-1.211-0.407
			c-1.494-0.05-2.988,0.012-4.481-0.024c-1.991-0.051-2.721-0.997-2.275-2.899c0.299-1.281,0.617-2.56,0.955-3.83
			c0.665-2.506,2.072-3.591,4.646-3.594c2.855-0.004,5.713,0.001,8.569,0.006c1.639,0.001,1.642,0.004,1.515,1.702
			C131.203,30.787,131.149,31.167,131.132,31.326z"/>
		<path fill-rule="evenodd" clip-rule="evenodd" fill="#1C4483" d="M51.373,43.419c-0.379,1.782-0.753,3.539-1.158,5.439
			c-2.233,0-4.586,0-7.044,0c1.498-6.184,2.96-12.223,4.49-18.539c1.912,0.103,4.266-0.67,6.381,0.417
			c1.341-0.173,2.66-0.416,3.988-0.496c1.382-0.082,2.775-0.054,4.16,0.013c2.039,0.099,3.214,1.21,2.872,3.186
			c-0.472,2.713-1.202,5.402-2.074,8.016c-0.553,1.658-2.138,2.392-3.809,2.51c-2.019,0.143-4.054,0.096-6.08,0.042
			C52.569,43.995,52.045,43.659,51.373,43.419z M54.391,41.187c1.542,0.394,2.246-0.531,2.545-2.159
			c0.287-1.562,0.772-3.086,1.108-4.642c0.076-0.349,0.033-0.925-0.191-1.106c-1.15-0.929-3.905,0.018-4.273,1.429
			c-0.375,1.437-0.707,2.885-1.06,4.326C51.994,41.186,51.993,41.185,54.391,41.187z"/>
		<path fill-rule="evenodd" clip-rule="evenodd" fill="#1C4483" d="M73.214,44.035c-1.866-0.002-3.733,0.033-5.599-0.011
			c-2.277-0.055-3.228-1.211-2.764-3.399c0.463-2.188,0.964-4.369,1.546-6.528c0.762-2.831,2.162-3.863,5.069-3.871
			c3.465-0.008,6.931-0.02,10.396,0.007c2.719,0.021,3.684,1.268,3.05,3.89c-0.5,2.07-0.995,4.142-1.552,6.194
			c-0.704,2.599-2.177,3.7-4.87,3.718C76.733,44.047,74.974,44.038,73.214,44.035z M73.889,41.182
			c0.087,0.134,0.175,0.268,0.262,0.402c0.787-0.517,1.986-0.863,2.278-1.581c0.715-1.756,1.034-3.677,1.455-5.545
			c0.082-0.361,0.044-0.933-0.184-1.148c-1.007-0.954-4.145-0.007-4.487,1.318c-0.373,1.441-0.717,2.891-1.051,4.34
			C71.653,41.179,71.661,41.18,73.889,41.182z"/>
	</g>
</g>
<g>
	<g>
		<path fill="#CC2027" d="M135.186,35.758h6.788v2.38h-5.618c-0.575,0-0.943,0.253-1.101,0.757c-0.139,0.33-0.209,0.778-0.209,1.343
			v0.102c0,1.208,0.265,1.898,0.796,2.067c0.147,0.072,0.332,0.107,0.553,0.107h5.579v2.342h-7.232c-1.807,0-2.934-1.184-3.379-3.55
			c-0.046-0.306-0.069-0.604-0.069-0.897v-0.242c0-1.26,0.413-2.418,1.24-3.479C133.118,36.068,134.003,35.758,135.186,35.758z"/>
		<path fill="#CC2027" d="M142.636,35.758h6.45c1.884,0,3.092,0.391,3.627,1.172c0.229,0.381,0.343,0.888,0.343,1.52v6.419h-3.313
			v-1.966c0-0.046-0.021-0.07-0.063-0.07h-3.697c-0.046,0.009-0.069,0.032-0.069,0.07v1.966h-3.276V35.758z M145.912,38.246v2.519
			c0.008,0.042,0.031,0.063,0.069,0.063h3.697c0.042,0,0.063-0.021,0.063-0.063v-1.521c-0.098-0.713-0.384-1.068-0.859-1.068h-2.901
			C145.936,38.18,145.912,38.204,145.912,38.246z"/>
		<path fill="#CC2027" d="M156.854,35.758h6.247v2.208h-4.072c-1.106,0-1.66,0.439-1.66,1.316l0.07,0.032h5.662v2.004h-5.624
			c-0.048,0.008-0.07,0.031-0.07,0.069v3.486h-3.767v-6.869c0-0.917,0.37-1.528,1.108-1.833
			C155.324,35.896,156.026,35.758,156.854,35.758z"/>
		<path fill="#CC2027" d="M163.718,35.758h10.434v2.316h-7.08c-0.048,0.009-0.07,0.032-0.07,0.07v1.138
			c0.009,0.048,0.032,0.07,0.07,0.07h7.08v2.035h-7.08c-0.048,0.01-0.07,0.032-0.07,0.07c0,0.509,0.208,0.867,0.623,1.075
			c0.289,0.136,0.899,0.204,1.833,0.204h4.694v2.144h-7.634c-0.712,0-1.428-0.231-2.145-0.693c-0.437-0.382-0.655-0.899-0.655-1.552
			V35.758z"/>
	</g>
</g>
<g>
	<g>
		<g>
			<path fill-rule="evenodd" clip-rule="evenodd" fill="#CC2027" d="M151.893,17.804c3.328,0.123,6.743,1.212,9.171,4.309
				c0.775,0.99,1.313,2.249,1.664,3.47c0.595,2.073,1.865,3.641,3.31,5.121c0.226,0.231,0.609,0.324,0.935,0.441
				c2.149,0.767,4.307,1.513,6.451,2.292c0.358,0.129,1.07,0.146,0.691,0.817c-0.306,0.541-0.306,1.568-1.464,1.14
				c-2.14-0.794-4.281-1.59-6.457-2.276c-2.538-0.801-5.044-0.571-7.333,0.806c-4.62,2.78-10.548,2.611-14.805-0.512
				c-5.229-3.836-4.83-10.688,0.807-13.903C146.896,18.349,149.087,17.82,151.893,17.804z M151.195,18.631
				c-3.104,0.061-5.773,0.887-7.906,3.035c-2.563,2.581-2.805,6.163-0.653,9.086c3.646,4.952,12.404,5.453,16.672,0.954
				c2.625-2.767,2.74-6.6,0.229-9.465C157.299,19.688,154.362,18.708,151.195,18.631z"/>
		</g>
	</g>
	<g>
		<path fill-rule="evenodd" clip-rule="evenodd" fill="#1C4483" d="M151.196,18.631c-3.104,0.061-5.773,0.887-7.907,3.035
			c-2.563,2.581-2.806,6.163-0.653,9.086c1.551,2.106,4.024,3.406,6.686,3.86l-0.546,0.94c-1.686-0.383-3.296-1.097-4.72-2.142
			c-5.229-3.836-4.83-10.688,0.806-13.903c2.034-1.16,4.225-1.688,7.032-1.705L151.196,18.631z"/>
	</g>
	<g opacity="0.3">
		<line stroke="#000000" stroke-width="0.5" stroke-miterlimit="10" x1="144.947" y1="30.249" x2="151.47" y2="32.801"/>
		
			<line fill="none" stroke="#000000" stroke-width="0.5" stroke-miterlimit="10" x1="143.104" y1="27.838" x2="155.086" y2="32.021"/>
		
			<line fill="none" stroke="#000000" stroke-width="0.5" stroke-miterlimit="10" x1="143.104" y1="26.065" x2="157.213" y2="30.816"/>
		
			<line fill="none" stroke="#000000" stroke-width="0.5" stroke-miterlimit="10" x1="143.492" y1="23.939" x2="158.063" y2="29.044"/>
		
			<line fill="none" stroke="#000000" stroke-width="0.5" stroke-miterlimit="10" x1="145.444" y1="22.096" x2="158.631" y2="27.342"/>
		
			<line fill="none" stroke="#000000" stroke-width="0.5" stroke-miterlimit="10" x1="146.72" y1="20.962" x2="159.031" y2="25.428"/>
		
			<line fill="none" stroke="#000000" stroke-width="0.5" stroke-miterlimit="10" x1="150.158" y1="19.969" x2="156.646" y2="22.451"/>
		
			<line fill="none" stroke="#000000" stroke-width="0.5" stroke-miterlimit="10" x1="144.947" y1="28.123" x2="148.776" y2="21.21"/>
		
			<line fill="none" stroke="#000000" stroke-width="0.5" stroke-miterlimit="10" x1="145.781" y1="30.575" x2="151.084" y2="20.323"/>
		
			<line fill="none" stroke="#000000" stroke-width="0.5" stroke-miterlimit="10" x1="146.862" y1="32.021" x2="152.463" y2="20.323"/>
		
			<line fill="none" stroke="#000000" stroke-width="0.5" stroke-miterlimit="10" x1="147.925" y1="33.163" x2="153.881" y2="21.21"/>
		
			<line fill="none" stroke="#000000" stroke-width="0.5" stroke-miterlimit="10" x1="149.662" y1="33.163" x2="155.382" y2="21.967"/>
		
			<line fill="none" stroke="#000000" stroke-width="0.5" stroke-miterlimit="10" x1="151.084" y1="33.723" x2="156.291" y2="22.451"/>
		
			<line fill="none" stroke="#000000" stroke-width="0.5" stroke-miterlimit="10" x1="153.402" y1="32.801" x2="157.078" y2="24.719"/>
	</g>
</g>
</svg>
