<?xml version="1.0" encoding="utf-8"?>
<!-- Generator: Adobe Illustrator 16.0.0, SVG Export Plug-In . SVG Version: 6.00 Build 0)  -->
<!DOCTYPE svg PUBLIC "-//W3C//DTD SVG 1.1//EN" "http://www.w3.org/Graphics/SVG/1.1/DTD/svg11.dtd">
<svg version="1.1" id="Layer_1" xmlns="http://www.w3.org/2000/svg" xmlns:xlink="http://www.w3.org/1999/xlink" x="0px" y="0px"
	 width="50px" height="50px" viewBox="0 0 50 50" enable-background="new 0 0 50 50" xml:space="preserve">
<g>
	<path fill-rule="evenodd" clip-rule="evenodd" fill="#FFFFFF" d="M43.303,23.968c0,0.691,0,1.383,0,2.074
		c-0.081,0.646-0.139,1.296-0.248,1.937c-0.591,3.46-2.036,6.519-4.384,9.13c-2.813,3.129-6.298,5.08-10.444,5.828
		c-0.7,0.127-1.41,0.199-2.115,0.295c-0.74,0-1.482,0-2.223,0c-0.119-0.021-0.237-0.053-0.357-0.068
		c-0.658-0.086-1.324-0.135-1.975-0.262c-4.129-0.813-7.601-2.793-10.369-5.963c-2.326-2.663-3.754-5.754-4.272-9.257
		c-0.084-0.569-0.146-1.142-0.218-1.714c0-0.642,0-1.284,0-1.927c0.022-0.119,0.053-0.237,0.068-0.356
		c0.086-0.686,0.128-1.377,0.26-2.053c0.858-4.377,2.996-8.014,6.483-10.793c4.405-3.513,9.437-4.743,14.966-3.725
		c4.195,0.771,7.686,2.85,10.465,6.088c2.141,2.494,3.503,5.369,4.067,8.611C43.132,22.527,43.206,23.249,43.303,23.968z
		 M25.408,22.583c-1.559-0.023-3.097-0.455-4.568-1.146c-1.486-0.699-2.777-1.666-3.834-2.982c-0.535,0.935-0.658,1.878-0.432,2.863
		c0.225,0.975,0.751,1.772,1.563,2.383c-0.02,0.038-0.04,0.076-0.061,0.115c-0.526-0.127-1.054-0.252-1.598-0.383
		c-0.012,0.85,0.258,1.653,0.814,2.367c0.561,0.716,1.338,1.105,2.18,1.396c-0.007,0.041-0.014,0.081-0.02,0.122
		c-0.509,0.026-1.017,0.054-1.546,0.081c0.177,0.824,0.693,1.401,1.341,1.879c0.643,0.473,1.367,0.742,2.268,0.795
		c-1.621,1.396-3.413,1.877-5.505,1.68c0.131,0.088,0.185,0.131,0.245,0.164c2.586,1.438,5.348,1.951,8.246,1.346
		c5.495-1.148,9.113-5.756,9-11.334c-0.003-0.148,0.104-0.348,0.225-0.444c0.633-0.513,1.199-1.077,1.664-1.839
		c-0.286,0.102-0.502,0.182-0.721,0.251c-0.211,0.067-0.423,0.135-0.639,0.185c-0.211,0.051-0.428,0.08-0.643,0.118
		c0.635-0.614,1.173-1.235,1.452-2.034c-0.704,0.244-1.377,0.477-2.047,0.711c-0.259,0.092-0.447,0.028-0.662-0.158
		c-2.288-1.982-5.794-0.938-6.552,1.971C25.426,21.281,25.463,21.923,25.408,22.583z"/>
</g>
</svg>
