<?xml version="1.0" encoding="utf-8"?>
<!-- Generator: Adobe Illustrator 16.0.0, SVG Export Plug-In . SVG Version: 6.00 Build 0)  -->
<!DOCTYPE svg PUBLIC "-//W3C//DTD SVG 1.1//EN" "http://www.w3.org/Graphics/SVG/1.1/DTD/svg11.dtd">
<svg version="1.1" id="Layer_1" xmlns="http://www.w3.org/2000/svg" xmlns:xlink="http://www.w3.org/1999/xlink" x="0px" y="0px"
	 width="300px" height="70px" viewBox="0 0 300 70" enable-background="new 0 0 300 70" xml:space="preserve">
<g>
	<g>
		<path fill-rule="evenodd" clip-rule="evenodd" fill="#FFFFFF" d="M133.47,54.306c-4.663,0-9.574,0-14.063,0
			c2.154-8.753,4.285-17.411,6.544-26.594c3.025,0,6.735-0.125,10.422,0.102c0.794,0.049,1.509,1.373,2.39,2.237
			c3.154-3.347,7.578-2.209,11.745-2.324c0.972-0.03,1.953-0.091,2.912,0.025c3.089,0.36,5.245-0.376,5.498-4.002
			c0.038-0.506,1.107-1.324,1.719-1.344c3.806-0.125,7.616-0.062,11.722-0.062c-0.249,1.755-0.47,3.322-0.762,5.383
			c3.375,0,6.518,0,9.662,0c-0.336,5.464-0.415,5.547-5.161,5.528c-5.994-0.022-6.02-0.031-7.62,5.826
			c-0.656,2.396-1.126,4.843-1.784,7.236c-0.563,2.041,0.372,2.653,2.198,2.644c2.768-0.015,5.535-0.002,8.309-0.002
			c-0.04,4.354-1.171,5.545-5.695,5.543c-4.147-0.002-8.297,0.04-12.447-0.014c-4.622-0.061-6.743-2.387-5.998-6.938
			c0.568-3.465,1.595-6.854,2.404-10.281c0.275-1.177,0.5-2.364,0.806-3.818c-1.956-0.144-3.574-0.265-5.423-0.402
			c-0.438,0.955-0.895,1.955-1.327,2.9c-2.476-0.176-4.918-0.439-7.364-0.5c-3.12-0.072-5.044,1.429-5.675,4.586
			C135.556,44.675,134.532,49.298,133.47,54.306z"/>
		<path fill-rule="evenodd" clip-rule="evenodd" fill="#FFFFFF" d="M45.084,24.582c-5.976,0-11.639-0.033-17.302,0.011
			c-3.218,0.026-3.77,0.68-3.816,4.637c3.158,0,6.329-0.019,9.498,0.007c1.656,0.015,3.342-0.074,4.958,0.204
			c3.392,0.585,5.043,2.528,4.42,5.887c-0.827,4.458-1.982,8.883-3.386,13.195c-1.16,3.561-4.114,5.728-7.743,5.838
			C23.039,54.629,14.35,54.45,5.237,54.45c0.108-2.433,0.206-4.628,0.285-6.403c6.117,0.103,11.941,0.243,17.767,0.261
			c0.958,0.005,2.332-0.206,2.781-0.837c0.721-1.017,1.065-2.469,1.048-3.728c-0.004-0.348-1.843-0.926-2.854-0.958
			c-3.52-0.119-7.046,0.025-10.567-0.063c-4.69-0.118-6.414-2.348-5.365-6.832c0.707-3.021,1.456-6.036,2.253-9.034
			c1.568-5.909,4.887-8.464,10.956-8.473c6.735-0.009,13.47,0.001,20.206,0.012c3.864,0.005,3.87,0.013,3.572,4.016
			C45.25,23.312,45.125,24.207,45.084,24.582z"/>
		<path fill-rule="evenodd" clip-rule="evenodd" fill="#FFFFFF" d="M210.74,29.823c-4.923,0-9.584-0.026-14.247,0.011
			c-2.647,0.019-3.103,0.559-3.143,3.817c2.603,0,5.211-0.015,7.821,0.004c1.362,0.015,2.752-0.059,4.083,0.169
			c2.793,0.479,4.152,2.081,3.641,4.847c-0.685,3.671-1.633,7.314-2.789,10.865c-0.955,2.933-3.388,4.714-6.378,4.807
			c-7.14,0.221-14.292,0.072-21.799,0.072c0.091-2.003,0.17-3.809,0.234-5.269c5.037,0.082,9.832,0.195,14.629,0.215
			c0.789,0,1.922-0.175,2.291-0.692c0.593-0.838,0.876-2.033,0.86-3.069c0-0.287-1.515-0.763-2.348-0.791
			c-2.9-0.097-5.802,0.023-8.702-0.047c-3.861-0.098-5.28-1.938-4.416-5.629c0.58-2.487,1.197-4.969,1.854-7.437
			c1.291-4.865,4.024-6.97,9.021-6.977c5.543-0.009,11.091,0.001,16.637,0.01c3.181,0.003,3.186,0.009,2.94,3.306
			C210.877,28.776,210.774,29.513,210.74,29.823z"/>
		<path fill-rule="evenodd" clip-rule="evenodd" fill="#FFFFFF" d="M55.894,53.301c-0.736,3.463-1.462,6.869-2.248,10.561
			c-4.336,0-8.903,0-13.674,0c2.908-12.007,5.747-23.728,8.716-35.991c3.712,0.198,8.282-1.303,12.389,0.81
			c2.604-0.338,5.165-0.81,7.744-0.965c2.682-0.159,5.389-0.104,8.076,0.026c3.958,0.191,6.241,2.349,5.576,6.185
			c-0.915,5.269-2.333,10.489-4.026,15.564c-1.074,3.215-4.152,4.642-7.396,4.87c-3.918,0.277-7.87,0.185-11.802,0.082
			C58.216,54.418,57.2,53.767,55.894,53.301z M61.754,48.967c2.992,0.766,4.36-1.03,4.941-4.191
			c0.557-3.031,1.498-5.991,2.151-9.009c0.147-0.681,0.063-1.798-0.372-2.149c-2.231-1.803-7.581,0.034-8.296,2.775
			c-0.728,2.789-1.371,5.599-2.058,8.4C57.1,48.965,57.099,48.963,61.754,48.967z"/>
		<path fill-rule="evenodd" clip-rule="evenodd" fill="#FFFFFF" d="M98.298,54.5c-3.623-0.004-7.248,0.064-10.869-0.024
			c-4.421-0.103-6.266-2.35-5.366-6.598c0.899-4.247,1.873-8.483,3.002-12.675c1.48-5.494,4.197-7.499,9.84-7.514
			c6.728-0.017,13.458-0.038,20.185,0.013c5.278,0.04,7.152,2.46,5.922,7.552c-0.97,4.018-1.931,8.038-3.013,12.027
			c-1.365,5.043-4.227,7.182-9.454,7.218C105.129,54.521,101.713,54.502,98.298,54.5z M99.607,48.959
			c0.17,0.259,0.34,0.52,0.509,0.781c1.528-1.002,3.856-1.677,4.423-3.071c1.388-3.408,2.008-7.138,2.823-10.763
			c0.159-0.703,0.087-1.813-0.355-2.232c-1.955-1.852-8.048-0.013-8.71,2.56c-0.723,2.799-1.391,5.61-2.04,8.427
			C95.267,48.953,95.282,48.955,99.607,48.959z"/>
	</g>
</g>
<g>
	<g>
		<path fill="#FFFFFF" d="M218.608,38.429h13.177v4.617h-10.904c-1.12,0-1.832,0.49-2.137,1.473
			c-0.271,0.641-0.407,1.51-0.407,2.604v0.197c0,2.348,0.514,3.686,1.542,4.013c0.289,0.141,0.648,0.211,1.075,0.211h10.831v4.545
			h-14.041c-3.508,0-5.693-2.298-6.559-6.894c-0.091-0.592-0.137-1.173-0.137-1.741v-0.468c0-2.446,0.803-4.697,2.409-6.754
			C214.595,39.029,216.312,38.429,218.608,38.429z"/>
		<path fill="#FFFFFF" d="M233.071,38.429h12.522c3.657,0,6.003,0.755,7.041,2.271c0.443,0.739,0.667,1.726,0.667,2.952v12.461
			h-6.436v-3.816c0-0.093-0.041-0.137-0.122-0.137h-7.177c-0.09,0.019-0.135,0.064-0.135,0.137v3.816h-6.361V38.429z
			 M239.433,43.257v4.889c0.017,0.084,0.062,0.124,0.135,0.124h7.177c0.081,0,0.122-0.04,0.122-0.124v-2.95
			c-0.188-1.384-0.745-2.075-1.667-2.075h-5.632C239.478,43.128,239.433,43.173,239.433,43.257z"/>
		<path fill="#FFFFFF" d="M260.675,38.429h12.128v4.284h-7.905c-2.148,0-3.223,0.854-3.223,2.557l0.136,0.063h10.992v3.89h-10.918
			c-0.092,0.017-0.137,0.061-0.137,0.137v6.769h-7.31v-13.34c0-1.777,0.715-2.963,2.147-3.56
			C257.706,38.693,259.068,38.429,260.675,38.429z"/>
		<path fill="#FFFFFF" d="M274.001,38.429h20.255v4.495H280.51c-0.091,0.016-0.137,0.06-0.137,0.136v2.21
			c0.018,0.09,0.063,0.135,0.137,0.135h13.746v3.954H280.51c-0.091,0.014-0.137,0.061-0.137,0.135c0,0.988,0.404,1.685,1.211,2.087
			c0.561,0.265,1.746,0.396,3.557,0.396h9.115v4.163h-14.82c-1.382,0-2.77-0.449-4.162-1.348c-0.85-0.739-1.272-1.743-1.272-3.013
			V38.429z"/>
	</g>
</g>
<g>
	<g>
		<g>
			<path fill-rule="evenodd" clip-rule="evenodd" fill="#FFFFFF" d="M252.414,4.564c6.461,0.239,13.09,2.353,17.805,8.366
				c1.504,1.922,2.549,4.366,3.229,6.737c1.153,4.024,3.62,7.068,6.424,9.942c0.438,0.448,1.183,0.629,1.813,0.855
				c4.175,1.49,8.362,2.938,12.527,4.449c0.695,0.253,2.077,0.282,1.341,1.59c-0.594,1.048-0.594,3.042-2.84,2.209
				c-4.153-1.541-8.313-3.087-12.536-4.419c-4.93-1.552-9.796-1.107-14.238,1.566c-8.968,5.396-20.477,5.069-28.742-0.994
				c-10.152-7.449-9.377-20.751,1.566-26.991C242.712,5.623,246.967,4.596,252.414,4.564z M251.058,6.172
				c-6.023,0.118-11.207,1.722-15.349,5.891c-4.976,5.009-5.443,11.965-1.267,17.64c7.073,9.611,24.081,10.585,32.366,1.852
				c5.096-5.371,5.32-12.813,0.443-18.376C262.91,8.223,257.208,6.32,251.058,6.172z"/>
		</g>
	</g>
	<g>
		<path fill-rule="evenodd" clip-rule="evenodd" fill="#FFFFFF" d="M251.06,6.172c-6.023,0.118-11.207,1.722-15.351,5.891
			c-4.976,5.009-5.445,11.965-1.267,17.64c3.01,4.087,7.813,6.612,12.979,7.494l-1.06,1.826c-3.273-0.747-6.4-2.134-9.164-4.158
			c-10.152-7.449-9.377-20.751,1.564-26.991c3.948-2.251,8.203-3.278,13.652-3.31L251.06,6.172z"/>
	</g>
	<g opacity="0.3">
		<line fill="#FFFFFF" x1="238.93" y1="28.727" x2="251.592" y2="33.681"/>
		<line fill="#FFFFFF" x1="235.353" y1="24.046" x2="258.612" y2="32.167"/>
		<line fill="#FFFFFF" x1="235.353" y1="20.605" x2="262.741" y2="29.826"/>
		<line fill="#FFFFFF" x1="236.105" y1="16.476" x2="264.394" y2="26.386"/>
		<line fill="#FFFFFF" x1="239.894" y1="12.897" x2="265.494" y2="23.082"/>
		<line fill="#FFFFFF" x1="242.371" y1="10.694" x2="266.271" y2="19.366"/>
		<line fill="#FFFFFF" x1="249.046" y1="8.768" x2="261.641" y2="13.586"/>
		<line fill="#FFFFFF" x1="238.93" y1="24.597" x2="246.361" y2="11.177"/>
		<line fill="#FFFFFF" x1="240.548" y1="29.359" x2="250.843" y2="9.456"/>
		<line fill="#FFFFFF" x1="242.647" y1="32.167" x2="253.519" y2="9.456"/>
		<line fill="#FFFFFF" x1="244.711" y1="34.382" x2="256.273" y2="11.177"/>
		<line fill="#FFFFFF" x1="248.083" y1="34.382" x2="259.187" y2="12.646"/>
		<line fill="#FFFFFF" x1="250.843" y1="35.471" x2="260.953" y2="13.586"/>
		<line fill="#FFFFFF" x1="255.342" y1="33.681" x2="262.479" y2="17.99"/>
	</g>
</g>
</svg>
