<?xml version="1.0" encoding="utf-8"?>
<!-- Generator: Adobe Illustrator 19.0.0, SVG Export Plug-In . SVG Version: 6.00 Build 0)  -->
<svg version="1.1" id="Layer_1" xmlns="http://www.w3.org/2000/svg" xmlns:xlink="http://www.w3.org/1999/xlink" x="0px" y="0px"
	 viewBox="0 0 150 35" style="enable-background:new 0 0 150 35;" xml:space="preserve">
<style type="text/css">
	.st0{fill:#1A4684;}
	.st1{fill:#CC2029;}
	.st2{fill:#E3E4E5;}
	.st3{fill:#FFFFFF;}
	.st4{fill:#F7F9F9;}
	.st5{fill:#F1EFEF;}
</style>
<g id="XMLID_35_">
	<g id="XMLID_36_">
		<path id="XMLID_45_" class="st0" d="M66.6,29.6c-2.4,0-5,0-7.3,0c1.1-4.3,2.2-8.7,3.4-13.3c1.6,0,3.5-0.1,5.4,0.1
			c0.4,0,0.8,0.7,1.2,1.1c1.6-1.7,3.9-1.1,6.1-1.2c0.5,0,1,0,1.5,0c1.6,0.2,2.7-0.2,2.8-2c0-0.3,0.6-0.7,0.9-0.7c2-0.1,3.9,0,6.1,0
			c-0.1,0.9-0.2,1.7-0.4,2.7c1.7,0,3.4,0,5,0c-0.2,2.7-0.2,2.8-2.7,2.8c-3.1,0-3.1,0-3.9,2.9c-0.3,1.2-0.6,2.4-0.9,3.6
			c-0.3,1,0.2,1.3,1.1,1.3c1.4,0,2.9,0,4.3,0c0,2.2-0.6,2.8-2.9,2.8c-2.1,0-4.3,0-6.4,0c-2.4,0-3.5-1.2-3.1-3.5
			c0.3-1.7,0.8-3.4,1.2-5.2c0.1-0.6,0.3-1.2,0.4-1.9c-1-0.1-1.8-0.1-2.8-0.2c-0.2,0.5-0.5,1-0.7,1.5c-1.3-0.1-2.5-0.2-3.8-0.3
			c-1.6,0-2.6,0.7-2.9,2.3C67.7,24.8,67.1,27.1,66.6,29.6z"/>
		<path id="XMLID_44_" class="st0" d="M20.9,14.7c-3.1,0-6,0-8.9,0c-1.7,0-2,0.3-2,2.3c1.6,0,3.3,0,4.9,0c0.9,0,1.7,0,2.6,0.1
			c1.8,0.3,2.6,1.3,2.3,3c-0.4,2.2-1,4.5-1.8,6.6c-0.6,1.8-2.1,2.9-4,2.9c-4.5,0.1-9,0-13.7,0c0.1-1.2,0.1-2.3,0.1-3.2
			c3.2,0.1,6.2,0.1,9.2,0.1c0.5,0,1.2-0.1,1.4-0.4c0.4-0.5,0.6-1.2,0.5-1.9c0-0.2-1-0.5-1.5-0.5c-1.8-0.1-3.6,0-5.5,0
			c-2.4-0.1-3.3-1.2-2.8-3.4c0.4-1.5,0.8-3,1.2-4.5c0.8-3,2.5-4.2,5.7-4.3c3.5,0,7,0,10.5,0c2,0,2,0,1.8,2
			C21,14.1,20.9,14.5,20.9,14.7z"/>
		<path id="XMLID_43_" class="st0" d="M106.5,17.4c-2.5,0-5,0-7.4,0c-1.4,0-1.6,0.3-1.6,1.9c1.3,0,2.7,0,4,0c0.7,0,1.4,0,2.1,0.1
			c1.4,0.2,2.1,1,1.9,2.4c-0.4,1.8-0.8,3.7-1.4,5.5c-0.5,1.5-1.8,2.4-3.3,2.4c-3.7,0.1-7.4,0-11.3,0c0-1,0.1-1.9,0.1-2.6
			c2.6,0,5.1,0.1,7.6,0.1c0.4,0,1-0.1,1.2-0.3c0.3-0.4,0.5-1,0.4-1.5c0-0.1-0.8-0.4-1.2-0.4c-1.5,0-3,0-4.5,0c-2,0-2.7-1-2.3-2.8
			c0.3-1.2,0.6-2.5,1-3.7c0.7-2.4,2.1-3.5,4.7-3.5c2.9,0,5.7,0,8.6,0c1.6,0,1.6,0,1.5,1.7C106.6,16.8,106.6,17.2,106.5,17.4z"/>
		<path id="XMLID_40_" class="st0" d="M26.5,29.1c-0.4,1.7-0.8,3.4-1.2,5.3c-2.2,0-4.6,0-7.1,0c1.5-6,3-11.9,4.5-18.1
			c1.9,0.1,4.3-0.7,6.4,0.4c1.3-0.2,2.7-0.4,4-0.5c1.4-0.1,2.8-0.1,4.2,0c2,0.1,3.2,1.2,2.9,3.1c-0.5,2.6-1.2,5.3-2.1,7.8
			c-0.6,1.6-2.1,2.3-3.8,2.4c-2,0.1-4.1,0.1-6.1,0C27.7,29.7,27.1,29.4,26.5,29.1z M29.5,27c1.5,0.4,2.3-0.5,2.6-2.1
			c0.3-1.5,0.8-3,1.1-4.5c0.1-0.3,0-0.9-0.2-1.1c-1.2-0.9-3.9,0-4.3,1.4c-0.4,1.4-0.7,2.8-1.1,4.2C27.1,27,27.1,27,29.5,27z"/>
		<path id="XMLID_37_" class="st0" d="M48.4,29.7c-1.9,0-3.7,0-5.6,0c-2.3-0.1-3.2-1.2-2.8-3.3s1-4.3,1.6-6.4c0.7-2.7,2.1-3.7,5-3.7
			c3.5,0,7,0,10.4,0c2.7,0,3.7,1.2,3.1,3.8c-0.5,2-1,4-1.6,6c-0.7,2.5-2.2,3.6-4.9,3.6C51.9,29.8,50.2,29.7,48.4,29.7z M49.1,27
			c0.1,0.1,0.2,0.3,0.3,0.4c0.8-0.5,2-0.8,2.3-1.5c0.7-1.7,1-3.6,1.5-5.4c0.1-0.4,0-0.9-0.2-1.1c-1-0.9-4.2,0-4.5,1.3
			c-0.4,1.4-0.7,2.8-1.1,4.2C46.8,27,46.8,27,49.1,27z"/>
	</g>
</g>
<g id="XMLID_27_">
	<g id="XMLID_28_">
		<path id="XMLID_34_" class="st1" d="M110.6,21.7h6.8V24h-5.6c-0.6,0-0.9,0.2-1.1,0.7c-0.1,0.3-0.2,0.8-0.2,1.3v0.1
			c0,1.2,0.3,1.8,0.8,2c0.1,0.1,0.3,0.1,0.6,0.1h5.6v2.3h-7.3c-1.8,0-2.9-1.2-3.4-3.5c0-0.3-0.1-0.6-0.1-0.9v-0.2
			c0-1.2,0.4-2.4,1.2-3.4C108.5,22,109.4,21.7,110.6,21.7z"/>
		<path id="XMLID_31_" class="st1" d="M118.1,21.7h6.5c1.9,0,3.1,0.4,3.6,1.1c0.2,0.4,0.3,0.9,0.3,1.5v6.3h-3.3v-1.9
			c0,0,0-0.1-0.1-0.1h-3.7c0,0-0.1,0-0.1,0.1v1.9H118L118.1,21.7L118.1,21.7z M121.4,24.1v2.5c0,0,0,0.1,0.1,0.1h3.7
			c0,0,0.1,0,0.1-0.1v-1.5c-0.1-0.7-0.4-1-0.9-1H121.4C121.4,24,121.4,24.1,121.4,24.1z"/>
		<path id="XMLID_30_" class="st1" d="M132.4,21.7h6.3v2.2h-4.1c-1.1,0-1.7,0.4-1.7,1.3h0.1h5.7v2h-5.6c0,0-0.1,0-0.1,0.1v3.4h-3.8
			V24c0-0.9,0.4-1.5,1.1-1.8C130.8,21.8,131.5,21.7,132.4,21.7z"/>
		<path id="XMLID_29_" class="st1" d="M139.3,21.7h10.4V24h-7.1c0,0-0.1,0-0.1,0.1v1.1c0,0,0,0.1,0.1,0.1h7.1v2h-7.1
			c0,0-0.1,0-0.1,0.1c0,0.5,0.2,0.8,0.6,1c0.3,0.1,0.9,0.2,1.8,0.2h4.7v2.1h-7.7c-0.7,0-1.4-0.2-2.2-0.7c-0.4-0.4-0.7-0.9-0.7-1.5
			L139.3,21.7L139.3,21.7z"/>
	</g>
</g>
<g id="XMLID_3_">
	<g id="XMLID_4_">
		<g id="XMLID_5_">
			<g id="XMLID_25_">
				<ellipse id="XMLID_26_" class="st2" cx="118.1" cy="11.6" rx="10.3" ry="10"/>
			</g>
			<g id="XMLID_6_">
				<g id="XMLID_14_">
					<g id="XMLID_23_">
						<path id="XMLID_24_" class="st3" d="M113.3,6.4c0-0.1-0.1-0.1,0-0.2L115,3c0-0.1,0.1-0.1,0.2-0.1l3.9-0.4c0.1,0,0.2,0,0.2,0.1
							l2.4,2.8c0,0.1,0.1,0.1,0,0.2l-1.5,2.5c0,0.1-0.1,0.1-0.2,0.1l-4.4,0.4c-0.1,0-0.2,0-0.2-0.1L113.3,6.4z"/>
					</g>
					<g id="XMLID_21_">
						<path id="XMLID_22_" class="st4" d="M122.8,19.6c-0.1,0-0.2,0.1-0.2,0.1l-3.6-0.9c-0.1,0-0.1-0.1-0.1-0.2l-0.3-3
							c0-0.1,0-0.2,0.1-0.2l3.3-2.8c0.1,0,0.2-0.1,0.2-0.1l3,0.7c0.1,0,0.1,0.1,0.1,0.2l0.5,3.6c0,0.1,0,0.2-0.1,0.2L122.8,19.6z"/>
					</g>
					<g id="XMLID_19_">
						<path id="XMLID_20_" class="st5" d="M122.1,12.4c-0.1,0-0.1-0.1-0.2-0.1l-1.8-3.9c0-0.1,0-0.2,0-0.2l1.5-2.5
							c0-0.1,0.1-0.1,0.2-0.1l3.7,0.6c0.1,0,0.2,0.1,0.2,0.1l1.6,3.4c0,0.1,0,0.2,0,0.2l-2,3.1c0,0.1-0.1,0.1-0.2,0.1L122.1,12.4z"
							/>
					</g>
					<g id="XMLID_17_">
						<path id="XMLID_18_" class="st5" d="M111.6,14.4c-0.1,0-0.2,0-0.2,0l-2.6-2.6c-0.1,0-0.1-0.1-0.1-0.2l0.8-3.7
							c0-0.1,0.1-0.1,0.1-0.2l3.5-1.3c0.1,0,0.2,0,0.2,0l2.1,2.2c0.1,0.1,0.1,0.1,0.1,0.2l-0.9,4.2c0,0.1-0.1,0.1-0.1,0.2
							L111.6,14.4z"/>
					</g>
					<g id="XMLID_15_">
						<path id="XMLID_16_" class="st3" d="M118.8,18.5c0,0.1,0,0.2-0.1,0.2l-3.4,1.6c-0.1,0-0.2,0-0.2,0l-3.4-1.9
							c-0.1,0-0.1-0.1-0.1-0.2l-0.2-3.6c0-0.1,0-0.2,0.1-0.2l2.8-1.2c0.1,0,0.2,0,0.2,0l3.8,2.1c0.1,0,0.1,0.1,0.1,0.2L118.8,18.5z"
							/>
					</g>
				</g>
				<g id="XMLID_7_">
					<path id="XMLID_8_" class="st1" d="M115,3C115,2.9,115,2.9,115,3l-1.3-0.4c-0.1,0-0.2,0-0.2,0l-4,3.5c0,0.1-0.1,0.2-0.1,0.2
						l0.1,1.2c0,0.1,0.1,0.1,0.1,0.1l3.5-1.3c0.1,0,0.2-0.1,0.2-0.2L115,3z M125.6,6.1c0.1,0,0.1,0,0.1-0.1l-0.1-1.2
						c0-0.1-0.1-0.2-0.1-0.2s-1.3-1.1-2.2-1.6c-0.9-0.5-2.5-1-2.5-1c-0.1,0-0.2,0-0.2,0l-1.2,0.5c-0.1,0-0.1,0.1,0,0.1l2.4,2.8
						c0,0.1,0.1,0.1,0.2,0.1L125.6,6.1z M128.4,11.1c0-0.1,0-0.2-0.1-0.2l-0.9-0.9c0-0.1-0.1,0-0.2,0l-2,3.1c0,0.1-0.1,0.2-0.1,0.2
						l0.5,3.6c0,0.1,0.1,0.1,0.1,0.1l1.2-0.5c0.1,0,0.1-0.1,0.2-0.2L128.4,11.1z M115.4,20.3c-0.1,0-0.1,0.1,0,0.2l0.9,0.9
						c0,0.1,0.1,0.1,0.2,0.1l5.4-0.5c0.1,0,0.2-0.1,0.2-0.1l0.6-1.1c0-0.1,0-0.1-0.1-0.1l-3.6-0.9c-0.1,0-0.2,0-0.2,0L115.4,20.3z
						 M108.7,11.8c-0.1,0-0.1,0-0.2,0l-0.6,1.1c0,0.1-0.1,0.2,0,0.2l2.2,4.8c0,0.1,0.1,0.1,0.2,0.1l1.3,0.3c0.1,0,0.1,0,0.1-0.1
						l-0.2-3.6c0-0.1-0.1-0.2-0.1-0.2L108.7,11.8z"/>
				</g>
			</g>
		</g>
	</g>
</g>
<path id="XMLID_2_" class="st1" d="M118.3,15.5c0.1,0,0.2,0,0.2,0l3.3-2.8c0.1,0,0.1-0.1,0-0.2L120,8.6c0-0.1-0.1-0.1-0.2-0.1
	l-4.4,0.4c-0.1,0-0.1,0.1-0.2,0.1l-0.9,4.2c0,0.1,0,0.2,0.1,0.2L118.3,15.5z"/>
</svg>
